<?xml version="1.0" encoding="utf-8"?>
<!-- Generator: Adobe Illustrator 23.0.5, SVG Export Plug-In . SVG Version: 6.00 Build 0)  -->
<svg version="1.1" id="Capa_1" xmlns="http://www.w3.org/2000/svg" xmlns:xlink="http://www.w3.org/1999/xlink" x="0px" y="0px"
	 viewBox="0 0 332 503" style="enable-background:new 0 0 332 503;" xml:space="preserve">
<style type="text/css">
	.st0{fill:none;stroke:#000000;stroke-width:2;}
</style>
<path d="M192,127.5c0,0-48.5-25-108-8.5c23.5-17.5,77-30,82.5-118C167.5,6,192,127.5,192,127.5z"/>
<path class="st0" d="M331.5,501c0,0-271,4-323.5-190c-35.5-171,76-192,76-192 M84,119c59.5-16.5,108,8.5,108,8.5S167.5,6,166.5,1
	C161,89,107.5,101.5,84,119z"/>
<path class="st0" d="M192,128c78.5,35.5,144.5,207.5,122,239.5C273.5,387,193.5,164.5,192,128z"/>
</svg>
